<?xml version="1.0" encoding="UTF-8"?>
<!DOCTYPE svg PUBLIC "-//W3C//DTD SVG 1.1//EN" "http://www.w3.org/Graphics/SVG/1.1/DTD/svg11.dtd">
<!-- Creator: CorelDRAW X6 -->
<svg xmlns="http://www.w3.org/2000/svg" xml:space="preserve" width="3.26389in" height="0.77778in" version="1.1" style="shape-rendering:geometricPrecision; text-rendering:geometricPrecision; image-rendering:optimizeQuality; fill-rule:evenodd; clip-rule:evenodd"
viewBox="0 0 3264 778"
 xmlns:xlink="http://www.w3.org/1999/xlink">
 <defs>
  <style type="text/css">
   <![CDATA[
    .fil6 {fill:#23A6DE;fill-rule:nonzero}
    .fil12 {fill:#256C9D;fill-rule:nonzero}
    .fil2 {fill:#28BECA;fill-rule:nonzero}
    .fil5 {fill:#30486F;fill-rule:nonzero}
    .fil15 {fill:#307ABD;fill-rule:nonzero}
    .fil9 {fill:#32BDD8;fill-rule:nonzero}
    .fil0 {fill:#354B82;fill-rule:nonzero}
    .fil10 {fill:#3558A5;fill-rule:nonzero}
    .fil16 {fill:#373435;fill-rule:nonzero}
    .fil25 {fill:#393668;fill-rule:nonzero}
    .fil8 {fill:#4078BB;fill-rule:nonzero}
    .fil7 {fill:#6DCDE7;fill-rule:nonzero}
    .fil3 {fill:#727376;fill-rule:nonzero}
    .fil11 {fill:#80AEDC;fill-rule:nonzero}
    .fil4 {fill:#A9ABAE;fill-rule:nonzero}
    .fil23 {fill:#CE3939;fill-rule:nonzero}
    .fil19 {fill:#DD8538;fill-rule:nonzero}
    .fil22 {fill:#E05438;fill-rule:nonzero}
    .fil17 {fill:#EE3537;fill-rule:nonzero}
    .fil13 {fill:#F05936;fill-rule:nonzero}
    .fil21 {fill:#F37835;fill-rule:nonzero}
    .fil14 {fill:#F47C35;fill-rule:nonzero}
    .fil1 {fill:#F79633;fill-rule:nonzero}
    .fil18 {fill:#F89F32;fill-rule:nonzero}
    .fil20 {fill:#FCD028;fill-rule:nonzero}
    .fil24 {fill:#FEFEFE;fill-rule:nonzero}
   ]]>
  </style>
 </defs>
 <g id="Layer_x0020_1">
  <metadata id="CorelCorpID_0Corel-Layer"/>
  <path class="fil0" d="M1423 139c-2,-7 -5,-11 -11,-11 -7,0 -10,4 -12,11l-54 196 132 0 -54 -196zm149 389l-35 0c-5,0 -9,-4 -10,-9l-39 -137 -154 0 -38 137c-1,5 -6,9 -11,9l-35 0c-6,0 -10,-4 -10,-10 0,-1 0,-3 1,-4l110 -387c10,-36 38,-45 61,-45 22,0 50,8 60,45l110 388c1,1 1,3 1,4 0,5 -4,10 -10,10z"/>
  <path class="fil0" d="M1736 532c-22,0 -65,-2 -94,-9 -8,-2 -13,-5 -13,-12l0 -21c0,-5 5,-9 11,-9 1,0 2,0 2,0 29,4 72,7 93,7 39,0 59,-10 59,-42 0,-18 -11,-29 -45,-49l-60 -36c-36,-22 -61,-48 -61,-85 0,-62 46,-79 108,-79 33,0 65,3 93,8 8,1 11,5 11,12l0 20c0,7 -4,10 -10,10 -1,0 -1,0 -2,0 -21,-2 -59,-5 -92,-5 -33,0 -55,4 -55,35 0,18 14,29 41,45l59 35c49,29 65,55 65,90 0,61 -45,86 -111,86z"/>
  <path class="fil0" d="M2145 528l-43 0c-7,0 -9,-2 -14,-8l-118 -146 0 142c0,7 -5,12 -12,12l-29 0c-7,0 -12,-5 -12,-12l0 -424c0,-7 5,-12 12,-12l29 0c7,0 12,5 12,12l0 248 119 -134c4,-4 6,-5 12,-5l42 0c6,0 9,3 9,7 0,2 -1,5 -3,7l-131 142 132 160c1,1 2,4 2,5 0,4 -2,8 -7,8z"/>
  <path class="fil0" d="M2452 528l-29 0c-7,0 -12,-5 -12,-12l0 -196c0,-60 -20,-79 -65,-79 -25,0 -53,10 -80,23l0 251c0,6 -5,12 -12,12l-29 0c-6,0 -11,-5 -11,-12l0 -304c0,-7 5,-12 11,-12l30 0c7,0 11,5 11,12l0 11c33,-18 60,-27 95,-27 71,0 104,45 104,124l0 196c0,7 -5,12 -12,12z"/>
  <path class="fil0" d="M2747 342c0,-61 -24,-99 -80,-99 -55,0 -80,38 -80,99l0 45c0,61 24,99 80,99 55,0 80,-38 80,-99l0 -45zm-80 190c-88,0 -132,-58 -132,-145l0 -45c0,-88 45,-145 132,-145 87,0 133,58 133,145l0 45c0,87 -45,145 -133,145z"/>
  <path class="fil0" d="M3264 215l-58 276c-8,38 -14,41 -50,41 -31,0 -39,-5 -49,-43l-52 -202c-1,-4 -1,-4 -3,-4 -2,0 -2,0 -3,4l-52 202c-9,35 -18,43 -49,43 -36,0 -42,-4 -50,-41l-58 -276c0,-1 0,-2 0,-2 0,-6 5,-12 11,-12l32 0c5,0 10,5 10,10l49 271c1,7 3,7 5,7 2,0 4,-2 5,-7l58 -229c4,-13 11,-18 24,-18l33 0c13,0 20,5 24,18l58 229c1,5 3,7 5,7 2,0 4,0 5,-7l49 -271c1,-5 5,-10 10,-10l32 0c7,0 11,6 11,12 0,1 0,2 0,2z"/>
  <path class="fil1" d="M492 763c0,0 -1,0 -1,0 0,0 0,-1 0,-1l45 -67c0,0 1,0 1,0 0,0 0,1 0,1l-43 65 178 -50c0,0 1,0 1,1 0,0 0,1 -1,1l-181 50c0,0 0,0 0,0z"/>
  <path class="fil1" d="M631 664c0,0 0,0 0,0l-95 -73c0,0 0,0 0,-1 0,0 0,-1 0,-1l143 -57 -214 -28c0,0 -1,0 -1,-1 0,0 0,-1 1,-1 0,0 0,0 0,0l217 29c0,0 1,0 1,1 0,0 0,1 0,1l-145 58 93 71 32 -61c0,0 1,-1 1,0 0,0 1,1 0,1l-32 61c0,0 0,0 -1,0 0,0 0,0 0,0z"/>
  <path class="fil2" d="M327 381c0,0 0,0 -1,0 0,0 0,-1 0,-1l36 -128c0,0 0,0 0,0l128 -72 -116 -27c0,0 0,0 -1,0 0,0 0,0 0,-1l28 -103c0,0 1,-1 1,-1 0,0 1,1 1,1l-28 102 118 27c0,0 1,0 1,1 0,0 0,1 0,1l-130 73 -35 126 153 -81c0,0 1,0 1,0 0,0 0,1 0,1l-154 81c0,0 0,0 0,0z"/>
  <path class="fil2" d="M327 384c0,0 0,0 0,0l-204 -20c0,0 -1,0 -1,-1 0,0 0,-1 1,-1l112 -49c0,0 1,0 1,1 0,0 0,1 -1,1l-107 48 199 20c0,0 1,0 1,1 0,0 0,1 -1,1z"/>
  <path class="fil2" d="M465 502l-74 -62c0,0 0,0 0,0l-158 24 -15 -92 -1 0 14 92 -163 11 151 -104 -3 0 -152 104c0,0 0,1 0,1 0,0 0,1 1,1l168 -12c0,0 0,0 0,0l159 -24 76 62c0,0 0,0 0,0 0,0 0,0 0,0 0,0 0,0 0,0 -1,-1 -1,-1 -2,-2z"/>
  <path class="fil2" d="M390 442c0,0 0,0 -1,0l-63 -58 -92 -69c0,0 0,0 0,-1 0,0 0,-1 0,-1l128 -62c0,0 1,0 1,0 0,0 0,1 0,1l-127 61 91 68c0,0 0,0 0,0l63 58c0,0 0,1 0,1 0,0 0,0 0,0z"/>
  <path class="fil2" d="M374 154l-243 108 232 -10 12 -98zm-247 110c0,0 -1,0 -1,-1 0,0 0,-1 0,-1l248 -110c0,0 1,0 1,0 0,0 0,0 0,1l-12 100c0,0 0,1 -1,1l-236 10c0,0 0,0 0,0z"/>
  <path class="fil2" d="M218 156c0,0 -1,0 -1,-1 0,0 0,-1 1,-1l157 -3c0,0 1,0 1,1 0,0 0,1 -1,1l-157 3 0 0z"/>
  <path class="fil2" d="M218 156c0,0 -1,0 -1,0 0,0 0,-1 0,-1l185 -106c0,0 1,0 1,0 0,0 0,1 0,1l-185 106c0,0 0,0 0,0z"/>
  <path class="fil1" d="M537 592c0,0 0,0 -1,0l-71 -87c0,0 0,-1 0,-1 0,0 1,0 1,0l71 87c0,0 0,1 0,1 0,0 0,0 0,0z"/>
  <path class="fil1" d="M380 643c0,0 -1,0 -1,-1 0,0 0,-1 1,-1l157 -51c0,0 1,0 1,1 0,0 0,1 -1,1l-157 51c0,0 0,0 0,0z"/>
  <path class="fil1" d="M380 643l-52 90 205 -37 -153 -53zm-53 91c0,0 -1,0 -1,0 0,0 0,-1 0,-1l53 -92c0,0 1,0 1,0l157 54c0,0 1,0 1,1 0,0 0,1 -1,1l-210 38c0,0 0,0 0,0z"/>
  <path class="fil1" d="M231 464l-219 152 293 -68 158 -44 -232 -40zm-223 155c0,0 -1,0 -1,0 0,0 0,-1 0,-1l223 -155c0,0 0,0 1,0l235 41c0,0 1,0 1,1 0,0 0,1 -1,1l-161 45 -297 69c0,0 0,0 0,0z"/>
  <path class="fil1" d="M304 551l-141 110 215 -20 -74 -90zm232 146c0,0 -1,0 -1,-1l0 -104 -230 -41 74 91c0,0 0,1 0,1 0,0 0,0 -1,0l-220 20c0,0 0,0 0,0 0,0 -1,0 -1,-1 0,0 0,-1 0,-1l145 -112c0,0 0,0 0,0l0 0 0 0c0,0 0,0 1,0l0 0 0 0 0 0 0 0 0 0c0,0 0,0 0,0l0 0 0 0 0 0 232 42c0,0 1,0 1,1l0 104c0,0 0,1 -1,1z"/>
  <path class="fil1" d="M673 713c0,0 0,0 -1,0l-42 -49c0,0 0,-1 0,-1 0,0 1,0 1,0l42 49c0,0 0,1 0,1 0,0 0,0 -1,0z"/>
  <path class="fil1" d="M673 713c0,0 0,0 0,0l-136 -17c0,0 -1,0 -1,-1 0,0 0,-1 1,-1l136 17c0,0 1,0 1,1 0,0 0,1 -1,1z"/>
  <path class="fil2" d="M390 442c0,0 -1,0 -1,0 0,0 0,-1 0,-1l117 -45c0,0 1,0 1,0 0,0 0,1 0,1l-117 45c0,0 0,0 0,0z"/>
  <path class="fil2" d="M230 464c0,0 0,0 -1,0 0,0 0,-1 0,-1l97 -80c0,0 1,0 1,0 0,0 0,1 0,1l-97 80c0,0 0,0 -1,0z"/>
  <path class="fil2" d="M235 315c0,0 0,0 0,0l-108 -52c0,0 0,-1 0,-1 0,0 1,0 1,0l108 52c0,0 0,1 0,1 0,0 0,0 -1,0z"/>
  <path class="fil2" d="M390 442c0,0 0,0 0,0 0,0 0,-1 0,-1l91 -142 -118 -46c0,0 -1,-1 0,-1 0,0 1,-1 1,0l119 46c0,0 0,0 0,1 0,0 0,0 0,1l-91 143c0,0 0,0 -1,0z"/>
  <path class="fil1" d="M305 550c0,0 0,0 -1,0l-74 -84c0,0 0,-1 0,-1 0,0 1,0 1,0l74 84c0,0 0,1 0,1 0,0 0,0 -1,0z"/>
  <path class="fil1" d="M167 507l-104 -31c0,0 -1,0 -1,0 0,0 0,1 0,1l103 30 1 -1z"/>
  <path class="fil1" d="M169 581l-10 69c0,0 0,1 1,1 0,0 0,0 0,0 0,0 1,0 1,-1l10 -69 -2 0z"/>
  <polygon class="fil3" points="1039,418 1000,392 977,477 1028,447 "/>
  <polygon class="fil4" points="1060,464 1028,447 977,477 1044,500 "/>
  <polygon class="fil5" points="853,123 707,176 867,152 "/>
  <polygon class="fil6" points="707,176 671,30 853,123 "/>
  <polygon class="fil7" points="706,2 853,123 671,30 "/>
  <polygon class="fil8" points="671,30 537,220 493,180 516,111 "/>
  <polygon class="fil9" points="671,30 560,-9 560,-9 706,2 "/>
  <polygon class="fil10" points="671,30 560,-9 560,-9 402,49 516,111 "/>
  <polygon class="fil11" points="707,176 671,30 481,299 481,299 "/>
  <polygon class="fil12" points="530,334 719,280 641,212 "/>
  <polygon class="fil13" points="719,280 563,402 507,397 530,334 "/>
  <polygon class="fil14" points="719,280 683,533 563,402 "/>
  <polygon class="fil15" points="719,280 811,200 849,200 881,210 867,152 707,176 "/>
  <polygon class="fil16" points="1055,305 1007,327 991,372 "/>
  <polygon class="fil17" points="1000,392 991,372 955,407 "/>
  <polygon class="fil18" points="1055,305 881,210 849,200 849,220 962,318 922,336 920,381 955,407 991,372 1007,327 1039,322 "/>
  <polygon class="fil19" points="962,318 849,220 849,241 719,280 877,277 922,336 "/>
  <polygon class="fil20" points="719,280 879,480 920,381 922,336 877,277 "/>
  <polygon class="fil18" points="977,477 977,477 1000,392 955,407 "/>
  <polygon class="fil21" points="920,381 955,407 977,477 879,480 "/>
  <polygon class="fil1" points="879,480 719,280 683,533 "/>
  <polygon class="fil18" points="1044,500 977,477 879,480 1023,572 1061,595 1074,565 "/>
  <polygon class="fil21" points="1021,572 1023,572 879,480 875,569 "/>
  <polygon class="fil22" points="1023,572 1021,572 875,569 805,602 873,640 1061,595 "/>
  <polygon class="fil13" points="875,569 875,569 879,480 683,533 805,602 "/>
  <polygon class="fil17" points="683,533 664,602 805,602 "/>
  <polygon class="fil23" points="873,640 873,640 811,599 673,712 "/>
  <polygon class="fil24" points="811,200 719,280 849,241 816,225 "/>
  <polygon class="fil16" points="811,200 816,225 849,241 849,200 "/>
  <polygon class="fil12" points="671,30 641,212 707,176 "/>
  <polygon class="fil23" points="683,533 563,402 507,397 480,466 "/>
  <polygon class="fil0" points="707,176 641,212 719,280 "/>
  <path class="fil25" d="M263 465c0,18 -14,32 -32,32 -18,0 -32,-14 -32,-32 0,-18 14,-32 32,-32 18,0 32,14 32,32z"/>
  <path class="fil13" d="M407 642c0,15 -12,26 -26,26 -15,0 -26,-12 -26,-26 0,-15 12,-26 26,-26 15,0 26,12 26,26z"/>
  <path class="fil23" d="M555 696c0,10 -8,18 -18,18 -10,0 -18,-8 -18,-18 0,-10 8,-18 18,-18 10,0 18,8 18,18z"/>
  <path class="fil13" d="M568 591c0,17 -14,32 -32,32 -17,0 -32,-14 -32,-32 0,-17 14,-32 32,-32 17,0 32,14 32,32z"/>
  <path class="fil1" d="M343 733c0,9 -7,16 -16,16 -9,0 -16,-7 -16,-16 0,-9 7,-16 16,-16 9,0 16,7 16,16z"/>
  <path class="fil25" d="M389 254c0,15 -12,26 -26,26 -15,0 -26,-12 -26,-26 0,-15 12,-26 26,-26 15,0 26,12 26,26z"/>
  <path class="fil25" d="M415 439c0,13 -11,24 -24,24 -13,0 -24,-11 -24,-24 0,-13 11,-24 24,-24 13,0 24,11 24,24z"/>
  <path class="fil23" d="M189 662c0,16 -13,29 -29,29 -16,0 -29,-13 -29,-29 0,-16 13,-29 29,-29 16,0 29,13 29,29z"/>
  <path class="fil8" d="M505 303c0,16 -13,29 -29,29 -16,0 -29,-13 -29,-29 0,-16 13,-29 29,-29 16,0 29,13 29,29z"/>
  <path class="fil11" d="M98 477c0,16 -13,30 -30,30 -16,0 -30,-13 -30,-30 0,-16 13,-30 30,-30 16,0 30,13 30,30z"/>
  <path class="fil1" d="M325 550c0,11 -9,19 -19,19 -11,0 -19,-9 -19,-19 0,-11 9,-19 19,-19 11,0 19,9 19,19z"/>
  <path class="fil8" d="M263 313c0,16 -13,28 -28,28 -16,0 -28,-13 -28,-28 0,-16 13,-28 28,-28 16,0 28,13 28,28z"/>
  <path class="fil8" d="M394 152c0,11 -9,20 -20,20 -11,0 -20,-9 -20,-20 0,-11 9,-20 20,-20 11,0 20,9 20,20z"/>
  <path class="fil11" d="M342 380c0,8 -7,15 -15,15 -8,0 -15,-7 -15,-15 0,-8 7,-15 15,-15 8,0 15,7 15,15z"/>
  <path class="fil1" d="M43 612c0,12 -10,21 -21,21 -12,0 -21,-10 -21,-21 0,-12 10,-21 21,-21 12,0 21,10 21,21z"/>
  <path class="fil23" d="M486 504c0,11 -9,20 -20,20 -11,0 -20,-9 -20,-20 0,-11 9,-20 20,-20 11,0 20,9 20,20z"/>
  <path class="fil1" d="M652 664c0,12 -9,21 -21,21 -12,0 -21,-9 -21,-21 0,-12 9,-21 21,-21 12,0 21,9 21,21z"/>
  <path class="fil13" d="M507 762c0,8 -7,15 -15,15 -8,0 -15,-7 -15,-15 0,-8 7,-15 15,-15 8,0 15,7 15,15z"/>
  <path class="fil8" d="M146 364c0,11 -9,20 -20,20 -11,0 -20,-9 -20,-20 0,-11 9,-20 20,-20 11,0 20,9 20,20z"/>
  <path class="fil11" d="M233 155c0,8 -7,15 -15,15 -8,0 -15,-7 -15,-15 0,-8 7,-15 15,-15 8,0 15,7 15,15z"/>
  <path class="fil25" d="M149 259c0,13 -10,23 -23,23 -13,0 -23,-10 -23,-23 0,-13 10,-23 23,-23 13,0 23,10 23,23z"/>
 </g>
</svg>
